{
  "source": "C:\\Users\\Peter\\Desktop\\stuff\\MIUN\\quantitative_research\\video_compression\\videos\\BVI-HD\\BVI-HD_CDVL_videos\\ORIG\\Rowing_1920x1080_30fps.mp4",
  "output": "C:\\Users\\Peter\\Desktop\\stuff\\MIUN\\quantitative_research\\video_compression\\compressed_videos\\BVI-HD\\av1\\2.5\\Rowing_1920x1080_30fps_av1.mkv",
  "codec": "av1",
  "ok": "Input #0, mov,mp4,m4a,3gp,3g2,mj2, from 'C:\\Users\\Peter\\Desktop\\stuff\\MIUN\\quantitative_research\\video_compression\\videos\\BVI-HD\\BVI-HD_CDVL_videos\\ORIG\\Rowing_1920x1080_30fps.mp4':\n  Metadata:\n    major_brand     : isom\n    minor_version   : 512\n    compatible_brands: isomiso2avc1mp41\n    encoder         : Lavf54.28.101\n  Duration: 00:00:05.00, start: 0.000000, bitrate: 259220 kb/s\n  Stream #0:0[0x1](und): Video: h264 (High 4:4:4 Predictive) (avc1 / 0x31637661), yuv420p(progressive), 1920x1080, 259216 kb/s, 30 fps, 30 tbr, 30 tbn (default)\n    Metadata:\n      handler_name    : VideoHandler\n      vendor_id       : [0][0][0][0]\n[out#0/matroska @ 0000029dde7b9700] Codec AVOption b:a (set bitrate (in bits/s)) has not been used for any stream. The most likely reason is either wrong type (e.g. a video option with no video streams) or that it is a private option of some decoder which was not actually used for any stream.\nStream mapping:\n  Stream #0:0 -> #0:0 (h264 (native) -> av1 (libsvtav1))\nPress [q] to stop, [?] for help\nSvt[info]: -------------------------------------------\nSvt[info]: SVT [version]:\tSVT-AV1 Encoder Lib v3.1.0-19-g6ecfe8ec\nSvt[info]: SVT [build]  :\tGCC 15.2.0\t 64 bit\nSvt[info]: LIB Build date: Aug 17 2025 11:37:13\nSvt[info]: -------------------------------------------\nSvt[info]: Level of Parallelism: 5\nSvt[info]: Number of PPCS 93\nSvt[info]: [asm level on system : up to avx2]\nSvt[info]: [asm level selected : up to avx2]\nSvt[info]: -------------------------------------------\nSvt[info]: SVT [config]: main profile\ttier (auto)\tlevel (auto)\nSvt[info]: SVT [config]: width / height / fps numerator / fps denominator \t\t: 1920 / 1080 / 30 / 1\nSvt[info]: SVT [config]: bit-depth / color format \t\t\t\t\t: 8 / YUV420\nSvt[info]: SVT [config]: preset / tune / pred struct \t\t\t\t\t: 4 / PSNR / random access\nSvt[info]: SVT [config]: gop size / mini-gop size / key-frame type \t\t\t: 161 / 16 / key frame\nSvt[info]: SVT [config]: BRC mode / target bitrate (kbps)\t\t\t\t: VBR / 2500 \nSvt[info]: SVT [config]: AQ mode / Variance Boost \t\t\t\t\t: 2 / 0\nSvt[info]: SVT [config]: sharpness / luminance-based QP bias \t\t\t\t: 0 / 0\nSvt[info]: SVT [config]: QP scale compress strength \t\t\t\t\t: 0\nSvt[info]: -------------------------------------------\nOutput #0, matroska, to 'C:\\Users\\Peter\\Desktop\\stuff\\MIUN\\quantitative_research\\video_compression\\compressed_videos\\BVI-HD\\av1\\2.5\\Rowing_1920x1080_30fps_av1.mkv':\n  Metadata:\n    major_brand     : isom\n    minor_version   : 512\n    compatible_brands: isomiso2avc1mp41\n    encoder         : Lavf62.3.100\n  Stream #0:0(und): Video: av1 (AV01 / 0x31305641), yuv420p(tv, progressive), 1920x1080, q=2-31, 2500 kb/s, 30 fps, 1k tbn (default)\n    Metadata:\n      encoder         : Lavc62.11.100 libsvtav1\n      handler_name    : VideoHandler\n      vendor_id       : [0][0][0][0]\n    Side data:\n      cpb: bitrate max/min/avg: 0/0/2500000 buffer size: 2500000 vbv_delay: N/A\nframe=    0 fps=0.0 q=0.0 size=       0KiB time=N/A bitrate=N/A speed=N/A elapsed=0:00:01.07    \nframe=    0 fps=0.0 q=0.0 size=       0KiB time=N/A bitrate=N/A speed=N/A elapsed=0:00:01.67    \nframe=    0 fps=0.0 q=0.0 size=       0KiB time=N/A bitrate=N/A speed=N/A elapsed=0:00:02.34    \nframe=    0 fps=0.0 q=0.0 size=       0KiB time=N/A bitrate=N/A speed=N/A elapsed=0:00:02.95    \nframe=    0 fps=0.0 q=0.0 size=       0KiB time=N/A bitrate=N/A speed=N/A elapsed=0:00:03.54    \nframe=    0 fps=0.0 q=0.0 size=       0KiB time=N/A bitrate=N/A speed=N/A elapsed=0:00:04.10    \nframe=    1 fps=0.2 q=47.0 size=       1KiB time=00:00:00.00 bitrate=N/A speed=   0x elapsed=0:00:04.66    \nframe=    1 fps=0.2 q=47.0 size=       1KiB time=00:00:00.00 bitrate=N/A speed=   0x elapsed=0:00:05.21    \nframe=    2 fps=0.3 q=55.0 size=       1KiB time=00:00:00.03 bitrate= 171.1kbits/s speed=0.00575x elapsed=0:00:05.79    \nframe=    5 fps=0.8 q=54.0 size=       1KiB time=00:00:00.13 bitrate=  42.8kbits/s speed=0.0209x elapsed=0:00:06.37    \nframe=    7 fps=1.0 q=54.0 size=       1KiB time=00:00:00.20 bitrate=  28.5kbits/s speed=0.0288x elapsed=0:00:06.94    \nframe=   11 fps=1.5 q=53.0 size=       1KiB time=00:00:00.33 bitrate=  17.1kbits/s speed=0.044x elapsed=0:00:07.57    \nframe=   16 fps=2.0 q=56.0 size=       1KiB time=00:00:00.43 bitrate=  13.2kbits/s speed=0.0533x elapsed=0:00:08.13    \nframe=   18 fps=2.1 q=56.0 size=       1KiB time=00:00:00.56 bitrate=  10.1kbits/s speed=0.0651x elapsed=0:00:08.69    \nframe=   22 fps=2.4 q=56.0 size=       1KiB time=00:00:00.70 bitrate=   8.1kbits/s speed=0.0758x elapsed=0:00:09.23    \nframe=   23 fps=2.3 q=54.0 size=       1KiB time=00:00:00.73 bitrate=   7.8kbits/s speed=0.0749x elapsed=0:00:09.79    \nframe=   28 fps=2.7 q=56.0 size=       1KiB time=00:00:00.86 bitrate=   6.6kbits/s speed=0.0835x elapsed=0:00:10.38    \nframe=   31 fps=2.8 q=54.0 size=       1KiB time=00:00:00.96 bitrate=   5.9kbits/s speed=0.0886x elapsed=0:00:10.91    \nframe=   35 fps=3.1 q=54.0 size=       1KiB time=00:00:01.10 bitrate=   5.2kbits/s speed=0.0959x elapsed=0:00:11.46    \nframe=   38 fps=3.2 q=56.0 size=       1KiB time=00:00:01.23 bitrate=   4.6kbits/s speed=0.103x elapsed=0:00:12.01    \nframe=   40 fps=3.2 q=56.0 size=       1KiB time=00:00:01.30 bitrate=   4.4kbits/s speed=0.104x elapsed=0:00:12.54    \nframe=   44 fps=3.4 q=59.0 size=       1KiB time=00:00:01.43 bitrate=   4.0kbits/s speed=0.109x elapsed=0:00:13.09    \nframe=   48 fps=3.5 q=59.0 size=       1KiB time=00:00:01.56 bitrate=   3.6kbits/s speed=0.115x elapsed=0:00:13.64    \nframe=   52 fps=3.7 q=59.0 size=       1KiB time=00:00:01.70 bitrate=   3.4kbits/s speed=0.12x elapsed=0:00:14.17    \nframe=   57 fps=3.9 q=52.0 size=       1KiB time=00:00:01.86 bitrate=   3.1kbits/s speed=0.127x elapsed=0:00:14.71    \nframe=   59 fps=3.9 q=57.0 size=       1KiB time=00:00:01.93 bitrate=   3.0kbits/s speed=0.127x elapsed=0:00:15.25    \nframe=   63 fps=4.0 q=57.0 size=       1KiB time=00:00:02.06 bitrate=   2.8kbits/s speed=0.131x elapsed=0:00:15.77    \nframe=   67 fps=4.1 q=57.0 size=       1KiB time=00:00:02.20 bitrate=   2.6kbits/s speed=0.135x elapsed=0:00:16.30    \nframe=   73 fps=4.3 q=55.0 size=       1KiB time=00:00:02.40 bitrate=   2.4kbits/s speed=0.143x elapsed=0:00:16.81    \nframe=   73 fps=4.2 q=55.0 size=       1KiB time=00:00:02.40 bitrate=   2.4kbits/s speed=0.138x elapsed=0:00:17.33    \nframe=   77 fps=4.3 q=55.0 size=       1KiB time=00:00:02.53 bitrate=   2.3kbits/s speed=0.142x elapsed=0:00:17.87    \nframe=   83 fps=4.5 q=54.0 size=       1KiB time=00:00:02.73 bitrate=   2.1kbits/s speed=0.148x elapsed=0:00:18.45    \nframe=   87 fps=4.6 q=54.0 size=       1KiB time=00:00:02.86 bitrate=   2.0kbits/s speed=0.151x elapsed=0:00:18.97    \nframe=   89 fps=4.6 q=55.0 size=       1KiB time=00:00:02.93 bitrate=   1.9kbits/s speed=0.151x elapsed=0:00:19.49    \nframe=   93 fps=4.6 q=52.0 size=       1KiB time=00:00:03.06 bitrate=   1.9kbits/s speed=0.153x elapsed=0:00:20.02    \nframe=   97 fps=4.7 q=55.0 size=       1KiB time=00:00:03.20 bitrate=   1.8kbits/s speed=0.156x elapsed=0:00:20.55    \nframe=  103 fps=4.9 q=55.0 size=       1KiB time=00:00:03.40 bitrate=   1.7kbits/s speed=0.161x elapsed=0:00:21.07    \nframe=  107 fps=4.9 q=55.0 size=       1KiB time=00:00:03.46 bitrate=   1.6kbits/s speed=0.16x elapsed=0:00:21.62    \nframe=  109 fps=4.9 q=53.0 size=       1KiB time=00:00:03.60 bitrate=   1.6kbits/s speed=0.162x elapsed=0:00:22.17    \nframe=  115 fps=5.1 q=55.0 size=       1KiB time=00:00:03.80 bitrate=   1.5kbits/s speed=0.167x elapsed=0:00:22.69    \nframe=  121 fps=5.2 q=53.0 size=       1KiB time=00:00:04.00 bitrate=   1.4kbits/s speed=0.172x elapsed=0:00:23.20    \nframe=  125 fps=5.3 q=55.0 size=       1KiB time=00:00:04.06 bitrate=   1.4kbits/s speed=0.171x elapsed=0:00:23.72    \nframe=  129 fps=5.3 q=49.0 size=       1KiB time=00:00:04.26 bitrate=   1.3kbits/s speed=0.176x elapsed=0:00:24.26    \nframe=  133 fps=5.4 q=56.0 size=       1KiB time=00:00:04.40 bitrate=   1.3kbits/s speed=0.177x elapsed=0:00:24.81    \nframe=  137 fps=5.4 q=55.0 size=       1KiB time=00:00:04.53 bitrate=   1.3kbits/s speed=0.179x elapsed=0:00:25.33    \n[out#0/matroska @ 0000029dde7b9700] video:1624KiB audio:0KiB subtitle:0KiB other streams:0KiB global headers:0KiB muxing overhead: 0.088231%\nframe=  150 fps=5.8 q=56.0 Lsize=    1625KiB time=00:00:04.96 bitrate=2680.5kbits/s speed=0.193x elapsed=0:00:25.74    \n",
  "seconds": 26.353857278823853,
  "probe_out": {}
}